# xmcd
#
# Track frame offsets:
#	150
#	18775
#	34915
#	54282
#	71180
#	89225
#	107950
#	127247
#	146382
#	164989
#	181116
#	200471
#	217334
#	235379
#	254131
#	273479
#	304509
#
# Disc length: 4072 seconds
#
# Revision: 1
# Processed by: cddbd v1.5.2PL0 Copyright (c) Steve Scherf et al.
# Submitted via: audiograbber 1.83.01
#
DISCID=120fe611
DTITLE=Sound Choice - SC3331
DYEAR=2002
DGENRE=Karaoke
TTITLE0=Radney Foster - Everyday Angel
TTITLE1=Toby Keith and Willie Nelson - Beer For My Horses
TTITLE2=Michael Peterson - Modern Man
TTITLE3=Nickel Creek - This Side
TTITLE4=Dusty Drake - And Then
TTITLE5=Shannon Lawson - Dream Your Way To Me
TTITLE6=Steve Azar - Waitin' On Joe
TTITLE7=Brad Paisley - I Wish You'd Stay
TTITLE8=Radney Foster - Everyday Angel (Vocals)
TTITLE9=Toby Keith and Willie Nelson - Beer For My Horses (Vocals)
TTITLE10=Michael Peterson - Modern Man (Vocals)
TTITLE11=Nickel Creek - This Side (Vocals)
TTITLE12=Dusty Drake - And Then (Vocals)
TTITLE13=Shannon Lawson - Dream Your Way To Me (Vocals)
TTITLE14=Steve Azar - Waitin' On Joe (Vocals)
TTITLE15=Brad Paisley - I Wish You'd Stay (Vocals)
TTITLE16=Data Track
EXTD=
EXTT0=
EXTT1=
EXTT2=
EXTT3=
EXTT4=
EXTT5=
EXTT6=
EXTT7=
EXTT8=
EXTT9=
EXTT10=
EXTT11=
EXTT12=
EXTT13=
EXTT14=
EXTT15=
EXTT16=
PLAYORDER=
